<svg width="13" height="14" viewBox="0 0 13 14" fill="none" xmlns="http://www.w3.org/2000/svg">
<path d="M11.9145 10.9312C11.6197 10.2331 11.192 9.59891 10.6551 9.06406C10.1198 8.52767 9.48577 8.10001 8.78791 7.80469C8.78166 7.80156 8.77541 7.8 8.76916 7.79688C9.74259 7.09375 10.3754 5.94844 10.3754 4.65625C10.3754 2.51562 8.64103 0.78125 6.50041 0.78125C4.35978 0.78125 2.62541 2.51562 2.62541 4.65625C2.62541 5.94844 3.25822 7.09375 4.23166 7.79844C4.22541 7.80156 4.21916 7.80312 4.21291 7.80625C3.51291 8.10156 2.88478 8.525 2.34572 9.06563C1.80933 9.60089 1.38166 10.235 1.08634 10.9328C0.796221 11.616 0.639752 12.3485 0.625405 13.0906C0.624988 13.1073 0.627913 13.1239 0.634008 13.1394C0.640103 13.1549 0.649244 13.1691 0.660893 13.181C0.672543 13.193 0.686464 13.2025 0.701837 13.2089C0.71721 13.2154 0.733724 13.2188 0.750405 13.2188H1.68791C1.75666 13.2188 1.81134 13.1641 1.81291 13.0969C1.84416 11.8906 2.32853 10.7609 3.18478 9.90469C4.07072 9.01875 5.24728 8.53125 6.50041 8.53125C7.75353 8.53125 8.93009 9.01875 9.81603 9.90469C10.6723 10.7609 11.1567 11.8906 11.1879 13.0969C11.1895 13.1656 11.2442 13.2188 11.3129 13.2188H12.2504C12.2671 13.2188 12.2836 13.2154 12.299 13.2089C12.3143 13.2025 12.3283 13.193 12.3399 13.181C12.3516 13.1691 12.3607 13.1549 12.3668 13.1394C12.3729 13.1239 12.3758 13.1073 12.3754 13.0906C12.3598 12.3437 12.2051 11.6172 11.9145 10.9312V10.9312ZM6.50041 7.34375C5.78322 7.34375 5.10822 7.06406 4.60041 6.55625C4.09259 6.04844 3.81291 5.37344 3.81291 4.65625C3.81291 3.93906 4.09259 3.26406 4.60041 2.75625C5.10822 2.24844 5.78322 1.96875 6.50041 1.96875C7.21759 1.96875 7.89259 2.24844 8.40041 2.75625C8.90822 3.26406 9.18791 3.93906 9.18791 4.65625C9.18791 5.37344 8.90822 6.04844 8.40041 6.55625C7.89259 7.06406 7.21759 7.34375 6.50041 7.34375Z" fill="white"/>
</svg>
